<mxfile host="app.diagrams.net" modified="2021-03-10T12:31:23.810Z" agent="5.0 (Windows NT 10.0; Win64; x64) AppleWebKit/537.36 (KHTML, like Gecko) Chrome/88.0.4324.190 Safari/537.36" etag="_sIzYv-bBKtp-Qr51j73" version="14.4.6" type="github">
  <diagram id="Erx3OJcyHx4riEtceRSi" name="Page-1">
    <mxGraphModel dx="1478" dy="1865" grid="1" gridSize="10" guides="1" tooltips="1" connect="1" arrows="1" fold="1" page="1" pageScale="1" pageWidth="827" pageHeight="1169" math="0" shadow="0">
      <root>
        <mxCell id="0" />
        <mxCell id="1" parent="0" />
        <mxCell id="QgEYjSGJs8B1K3zNiKlg-31" value="" style="edgeStyle=orthogonalEdgeStyle;rounded=0;orthogonalLoop=1;jettySize=auto;html=1;" edge="1" parent="1" source="QgEYjSGJs8B1K3zNiKlg-1" target="QgEYjSGJs8B1K3zNiKlg-30">
          <mxGeometry relative="1" as="geometry" />
        </mxCell>
        <mxCell id="QgEYjSGJs8B1K3zNiKlg-1" value="&lt;span style=&quot;color: rgb(45 , 45 , 45) ; font-family: &amp;#34;open sans&amp;#34; , &amp;#34;helvetica neue&amp;#34; , &amp;#34;helvetica&amp;#34; , &amp;#34;arial&amp;#34; , sans-serif ; font-size: 14px ; text-align: justify ; background-color: rgb(255 , 255 , 255)&quot;&gt;Llevan a&amp;nbsp;&lt;/span&gt;&lt;span style=&quot;color: rgb(45 , 45 , 45) ; font-family: &amp;#34;open sans&amp;#34; , &amp;#34;helvetica neue&amp;#34; , &amp;#34;helvetica&amp;#34; , &amp;#34;arial&amp;#34; , sans-serif ; font-size: 14px ; text-align: justify ; background-color: rgb(255 , 255 , 255)&quot;&gt;Tinín a una fiesta&lt;/span&gt;" style="ellipse;whiteSpace=wrap;html=1;" vertex="1" parent="1">
          <mxGeometry x="354" y="-280" width="120" height="80" as="geometry" />
        </mxCell>
        <mxCell id="QgEYjSGJs8B1K3zNiKlg-29" value="" style="edgeStyle=orthogonalEdgeStyle;rounded=0;orthogonalLoop=1;jettySize=auto;html=1;" edge="1" parent="1" source="QgEYjSGJs8B1K3zNiKlg-2" target="QgEYjSGJs8B1K3zNiKlg-23">
          <mxGeometry relative="1" as="geometry" />
        </mxCell>
        <mxCell id="QgEYjSGJs8B1K3zNiKlg-2" value="Se recibe un número, de las personas que Tinín no conoce en la fiesta" style="shape=parallelogram;perimeter=parallelogramPerimeter;whiteSpace=wrap;html=1;fixedSize=1;" vertex="1" parent="1">
          <mxGeometry x="313" y="90" width="201" height="110" as="geometry" />
        </mxCell>
        <mxCell id="QgEYjSGJs8B1K3zNiKlg-23" value="Se recibe Soy &quot;nombre&quot; el número de veces que se puso arriba" style="shape=parallelogram;perimeter=parallelogramPerimeter;whiteSpace=wrap;html=1;fixedSize=1;" vertex="1" parent="1">
          <mxGeometry x="295" y="250" width="237.5" height="120" as="geometry" />
        </mxCell>
        <mxCell id="QgEYjSGJs8B1K3zNiKlg-28" value="" style="edgeStyle=orthogonalEdgeStyle;rounded=0;orthogonalLoop=1;jettySize=auto;html=1;" edge="1" parent="1" source="QgEYjSGJs8B1K3zNiKlg-42" target="QgEYjSGJs8B1K3zNiKlg-27">
          <mxGeometry relative="1" as="geometry">
            <mxPoint x="414" y="530" as="sourcePoint" />
          </mxGeometry>
        </mxCell>
        <mxCell id="QgEYjSGJs8B1K3zNiKlg-27" value="FIN&lt;br&gt;" style="ellipse;whiteSpace=wrap;html=1;" vertex="1" parent="1">
          <mxGeometry x="354" y="860" width="120" height="80" as="geometry" />
        </mxCell>
        <mxCell id="QgEYjSGJs8B1K3zNiKlg-32" value="" style="edgeStyle=orthogonalEdgeStyle;rounded=0;orthogonalLoop=1;jettySize=auto;html=1;" edge="1" parent="1" source="QgEYjSGJs8B1K3zNiKlg-30" target="QgEYjSGJs8B1K3zNiKlg-2">
          <mxGeometry relative="1" as="geometry" />
        </mxCell>
        <mxCell id="QgEYjSGJs8B1K3zNiKlg-30" value="¿Hay gente que Tinín no conozca en la&lt;br&gt;fiesta?" style="rhombus;whiteSpace=wrap;html=1;" vertex="1" parent="1">
          <mxGeometry x="297" y="-170" width="234" height="200" as="geometry" />
        </mxCell>
        <mxCell id="QgEYjSGJs8B1K3zNiKlg-33" value="No" style="text;html=1;strokeColor=none;fillColor=none;align=center;verticalAlign=middle;whiteSpace=wrap;rounded=0;" vertex="1" parent="1">
          <mxGeometry x="559" y="30" width="40" height="20" as="geometry" />
        </mxCell>
        <mxCell id="QgEYjSGJs8B1K3zNiKlg-34" value="Si" style="text;html=1;strokeColor=none;fillColor=none;align=center;verticalAlign=middle;whiteSpace=wrap;rounded=0;" vertex="1" parent="1">
          <mxGeometry x="370" y="40" width="40" height="20" as="geometry" />
        </mxCell>
        <mxCell id="QgEYjSGJs8B1K3zNiKlg-39" value="" style="endArrow=none;html=1;" edge="1" parent="1" source="QgEYjSGJs8B1K3zNiKlg-30">
          <mxGeometry width="50" height="50" relative="1" as="geometry">
            <mxPoint x="510" y="70" as="sourcePoint" />
            <mxPoint x="860" y="320" as="targetPoint" />
          </mxGeometry>
        </mxCell>
        <mxCell id="QgEYjSGJs8B1K3zNiKlg-40" value="" style="endArrow=classic;html=1;" edge="1" parent="1" target="QgEYjSGJs8B1K3zNiKlg-27">
          <mxGeometry width="50" height="50" relative="1" as="geometry">
            <mxPoint x="860" y="320" as="sourcePoint" />
            <mxPoint x="560" y="420" as="targetPoint" />
          </mxGeometry>
        </mxCell>
        <mxCell id="QgEYjSGJs8B1K3zNiKlg-42" value="&lt;span&gt;Se imprime en pantalla&amp;nbsp;&lt;/span&gt;&lt;span style=&quot;color: rgb(45 , 45 , 45) ; font-family: &amp;#34;open sans&amp;#34; , &amp;#34;helvetica neue&amp;#34; , &amp;#34;helvetica&amp;#34; , &amp;#34;arial&amp;#34; , sans-serif ; font-size: 14px ; text-align: justify ; background-color: rgb(255 , 255 , 255)&quot;&gt;&quot;&lt;/span&gt;&lt;tt style=&quot;box-sizing: border-box ; color: rgb(45 , 45 , 45) ; font-size: 14px ; text-align: justify ; background-color: rgb(255 , 255 , 255)&quot;&gt;Hola, [nombre]&quot; por cada nombre&lt;/tt&gt;" style="shape=display;whiteSpace=wrap;html=1;" vertex="1" parent="1">
          <mxGeometry x="264" y="590" width="300" height="110" as="geometry" />
        </mxCell>
        <mxCell id="QgEYjSGJs8B1K3zNiKlg-47" value="" style="edgeStyle=orthogonalEdgeStyle;rounded=0;orthogonalLoop=1;jettySize=auto;html=1;" edge="1" parent="1" source="QgEYjSGJs8B1K3zNiKlg-46" target="QgEYjSGJs8B1K3zNiKlg-23">
          <mxGeometry relative="1" as="geometry" />
        </mxCell>
        <mxCell id="QgEYjSGJs8B1K3zNiKlg-48" value="" style="edgeStyle=orthogonalEdgeStyle;rounded=0;orthogonalLoop=1;jettySize=auto;html=1;" edge="1" parent="1" source="QgEYjSGJs8B1K3zNiKlg-46" target="QgEYjSGJs8B1K3zNiKlg-42">
          <mxGeometry relative="1" as="geometry" />
        </mxCell>
        <mxCell id="QgEYjSGJs8B1K3zNiKlg-46" value="El nombre tiene como mucho 100 letras&lt;br&gt;del alfabeto inglés?" style="rhombus;whiteSpace=wrap;html=1;" vertex="1" parent="1">
          <mxGeometry x="302" y="400" width="224" height="150" as="geometry" />
        </mxCell>
        <mxCell id="QgEYjSGJs8B1K3zNiKlg-49" value="" style="endArrow=classic;html=1;" edge="1" parent="1" source="QgEYjSGJs8B1K3zNiKlg-46">
          <mxGeometry width="50" height="50" relative="1" as="geometry">
            <mxPoint x="510" y="450" as="sourcePoint" />
            <mxPoint x="860" y="320" as="targetPoint" />
          </mxGeometry>
        </mxCell>
      </root>
    </mxGraphModel>
  </diagram>
</mxfile>
